<svg width="74" height="74" viewBox="0 0 74 74" fill="none" xmlns="http://www.w3.org/2000/svg">
<circle cx="39.4999" cy="39.5" r="34" stroke="black"/>
<circle cx="34.4999" cy="34.5" r="34.5" fill="#043084" fill-opacity="0.14"/>
<path d="M23.6665 35V26.6666C23.6665 25.0098 25.0097 23.6666 26.6665 23.6666H33.9999C35.6567 23.6666 36.9999 25.0098 36.9999 26.6666V47.3333C36.9999 48.9901 35.6567 50.3333 33.9999 50.3333H26.6665C25.0097 50.3333 23.6665 48.9901 23.6665 47.3333V39" stroke="black" stroke-width="1.5" stroke-linecap="round"/>
<path d="M40.4764 25.3872C41.7225 25.1626 43.0546 25.5319 44.0178 26.4951L47.789 30.2663C49.3511 31.8284 49.3511 34.3611 47.789 35.9231L40.4764 43.2358" stroke="black" stroke-width="1.5" stroke-linecap="round"/>
<path d="M39.6665 50.3333H46.3332C48.5423 50.3333 50.3332 48.5424 50.3332 46.3333V41C50.3332 40.5324 50.253 40.0837 50.1056 39.6666" stroke="black" stroke-width="1.5" stroke-linecap="round"/>
<circle cx="30.3332" cy="45" r="1.33333" fill="black"/>
</svg>
