<svg width="74" height="74" viewBox="0 0 74 74" fill="none" xmlns="http://www.w3.org/2000/svg">
<circle cx="39.4999" cy="39.5" r="34" stroke="black"/>
<circle cx="34.4999" cy="34.5" r="34.5" fill="#043084" fill-opacity="0.14"/>
<path d="M36.9999 30.3216C37.4141 30.3216 37.7499 29.9858 37.7499 29.5716C37.7499 29.1574 37.4141 28.8216 36.9999 28.8216V30.3216ZM38.1493 40.0839L37.9338 39.3655L38.1493 40.0839ZM35.8505 40.0839L36.0661 39.3655L35.8505 40.0839ZM48.908 36.8563L48.6924 36.1379L48.908 36.8563ZM49.5833 31.5716V34.9406H51.0833V31.5716H49.5833ZM24.4166 34.9406V31.5716H22.9166V34.9406H24.4166ZM48.6924 36.1379L37.9338 39.3655L38.3648 40.8022L49.1235 37.5747L48.6924 36.1379ZM36.0661 39.3655L25.3074 36.1379L24.8764 37.5747L35.635 40.8022L36.0661 39.3655ZM25.6666 30.3216H36.9999V28.8216H25.6666V30.3216ZM43.6666 30.3216H48.3333V28.8216H43.6666V30.3216ZM40.4426 30.3216H43.6666V28.8216H40.4426V30.3216ZM37.9338 39.3655C37.3246 39.5482 36.6752 39.5482 36.0661 39.3655L35.635 40.8022C36.5254 41.0693 37.4745 41.0693 38.3648 40.8022L37.9338 39.3655ZM22.9166 34.9406C22.9166 36.1551 23.7132 37.2257 24.8764 37.5747L25.3074 36.1379C24.7787 35.9793 24.4166 35.4926 24.4166 34.9406H22.9166ZM49.5833 34.9406C49.5833 35.4926 49.2212 35.9793 48.6924 36.1379L49.1235 37.5747C50.2867 37.2257 51.0833 36.1551 51.0833 34.9406H49.5833ZM51.0833 31.5716C51.0833 30.0528 49.852 28.8216 48.3333 28.8216V30.3216C49.0236 30.3216 49.5833 30.8812 49.5833 31.5716H51.0833ZM24.4166 31.5716C24.4166 30.8812 24.9762 30.3216 25.6666 30.3216V28.8216C24.1478 28.8216 22.9166 30.0528 22.9166 31.5716H24.4166Z" fill="black"/>
<path d="M36.9999 36.429L36.9999 34.1432" stroke="black" stroke-width="1.5" stroke-linecap="round" stroke-linejoin="round"/>
<path d="M25.5278 41.6667C25.5278 41.2525 25.192 40.9167 24.7778 40.9167C24.3636 40.9167 24.0278 41.2525 24.0278 41.6667H25.5278ZM48.4722 36.4284V44.9998H49.9722V36.4284H48.4722ZM45.2222 48.2498H28.7778V49.7498H45.2222V48.2498ZM25.5278 44.9998V41.6667H24.0278V44.9998H25.5278ZM28.7778 48.2498C26.9828 48.2498 25.5278 46.7947 25.5278 44.9998H24.0278C24.0278 47.6231 26.1544 49.7498 28.7778 49.7498V48.2498ZM48.4722 44.9998C48.4722 46.7947 47.0171 48.2498 45.2222 48.2498V49.7498C47.8456 49.7498 49.9722 47.6231 49.9722 44.9998H48.4722Z" fill="black"/>
<path d="M41.4443 29.5714V27C41.4443 25.8954 40.5489 25 39.4443 25H34.5555C33.4509 25 32.5555 25.8954 32.5555 27L32.5555 29.5714" stroke="black" stroke-width="1.5"/>
</svg>
