<svg width="74" height="74" viewBox="0 0 74 74" fill="none" xmlns="http://www.w3.org/2000/svg">
<circle cx="39.4999" cy="39.5" r="34" stroke="black"/>
<circle cx="34.4999" cy="34.5" r="34.5" fill="#043084" fill-opacity="0.14"/>
<path d="M36.9999 31.0833C37.4141 31.0833 37.7499 30.7475 37.7499 30.3333C37.7499 29.919 37.4141 29.5833 36.9999 29.5833V31.0833ZM25.9231 37.7341C25.8684 38.1447 26.1568 38.5219 26.5674 38.5767C26.978 38.6314 27.3552 38.343 27.41 37.9324L25.9231 37.7341ZM26.7433 42.9324C26.798 42.5218 26.5096 42.1446 26.099 42.0898C25.6884 42.0351 25.3112 42.3235 25.2565 42.7341L26.7433 42.9324ZM46.0526 33.9037L47.6526 45.9037L49.1395 45.7055L47.5395 33.7055L46.0526 33.9037ZM44.4311 49.5833H29.5686V51.0833H44.4311V49.5833ZM31.1686 31.0833H36.9999V29.5833H31.1686V31.0833ZM41.6665 31.0833H42.8311V29.5833H41.6665V31.0833ZM27.7433 35.4324L27.9471 33.9037L26.4603 33.7055L26.2565 35.2341L27.7433 35.4324ZM27.41 37.9324L27.7433 35.4324L26.2565 35.2341L25.9231 37.7341L27.41 37.9324ZM26.3471 45.9037L26.7433 42.9324L25.2565 42.7341L24.8603 45.7055L26.3471 45.9037ZM29.5686 49.5833C27.603 49.5833 26.0873 47.852 26.3471 45.9037L24.8603 45.7055C24.4806 48.553 26.6959 51.0833 29.5686 51.0833V49.5833ZM47.6526 45.9037C47.9124 47.852 46.3967 49.5833 44.4311 49.5833V51.0833C47.3039 51.0833 49.5192 48.553 49.1395 45.7055L47.6526 45.9037ZM47.5395 33.7055C47.2248 31.3456 45.2119 29.5833 42.8311 29.5833V31.0833C44.4601 31.0833 45.8374 32.2891 46.0526 33.9037L47.5395 33.7055ZM31.1686 29.5833C28.7879 29.5833 26.7749 31.3456 26.4603 33.7055L27.9471 33.9037C28.1624 32.2891 29.5397 31.0833 31.1686 31.0833V29.5833Z" fill="black"/>
<path d="M33.6665 41L36.3332 43.6666L41.6665 38.3333" stroke="black" stroke-width="1.5" stroke-linecap="round" stroke-linejoin="round"/>
<path d="M42.3332 33V27.6666C42.3332 25.4575 40.5424 23.6666 38.3332 23.6666H35.6666C33.4574 23.6666 31.6666 25.4575 31.6666 27.6666L31.6666 33" stroke="black" stroke-width="1.5" stroke-linecap="round"/>
</svg>
