<svg width="74" height="74" viewBox="0 0 74 74" fill="none" xmlns="http://www.w3.org/2000/svg">
<circle cx="39.5" cy="39.5" r="34" stroke="black"/>
<circle cx="34.5" cy="34.5" r="34.5" fill="#043084" fill-opacity="0.14"/>
<path d="M45.4048 38.0785L44.8549 37.5685L45.4048 38.0785ZM35.9768 28.6504L36.4868 29.2003L35.9768 28.6504ZM49.8813 26.6964L50.625 26.7937L49.8813 26.6964ZM47.3589 24.1739L47.4561 24.9176L47.3589 24.1739ZM29.6593 37.8675L30.3327 38.1976L29.6593 37.8675ZM36.1878 44.396L35.8577 43.7226L36.1878 44.396ZM34.4105 37.3371C34.1176 37.0442 33.6427 37.0442 33.3498 37.3371C33.057 37.63 33.057 38.1049 33.3498 38.3978L34.4105 37.3371ZM38.2749 43.3229C38.5678 43.6157 39.0427 43.6157 39.3356 43.3229C39.6285 43.03 39.6285 42.5551 39.3356 42.2622L38.2749 43.3229ZM29.4361 45.6799C29.729 45.387 29.729 44.9121 29.4361 44.6192C29.1432 44.3263 28.6683 44.3263 28.3754 44.6192L29.4361 45.6799ZM24.6042 48.3905C24.3113 48.6833 24.3113 49.1582 24.6042 49.4511C24.8971 49.744 25.3719 49.744 25.6648 49.4511L24.6042 48.3905ZM26.6076 42.8514C26.9005 42.5586 26.9005 42.0837 26.6076 41.7908C26.3147 41.4979 25.8399 41.4979 25.547 41.7908L26.6076 42.8514ZM23.6614 43.6764C23.3685 43.9693 23.3685 44.4442 23.6614 44.7371C23.9543 45.03 24.4291 45.03 24.722 44.7371L23.6614 43.6764ZM32.2645 48.5083C32.5574 48.2154 32.5574 47.7405 32.2645 47.4476C31.9716 47.1548 31.4967 47.1548 31.2038 47.4476L32.2645 48.5083ZM29.3182 49.3333C29.0253 49.6262 29.0253 50.101 29.3182 50.3939C29.6111 50.6868 30.086 50.6868 30.3789 50.3939L29.3182 49.3333ZM35.8707 49.0033C35.8122 48.5932 35.4323 48.3083 35.0222 48.3669C34.6122 48.4255 34.3272 48.8054 34.3858 49.2154L35.8707 49.0033ZM42.0108 44.4896L42.7532 44.3835L42.0108 44.4896ZM24.8398 39.6695C25.2499 39.7281 25.6298 39.4432 25.6884 39.0331C25.747 38.6231 25.462 38.2432 25.052 38.1846L24.8398 39.6695ZM29.5657 32.0445L29.4596 32.787L29.4596 32.787L29.5657 32.0445ZM43.4826 24.1462C43.081 24.2479 42.8379 24.6558 42.9396 25.0573C43.0413 25.4589 43.4492 25.702 43.8508 25.6003L43.4826 24.1462ZM39.824 27.0115C40.1985 26.8346 40.3587 26.3875 40.1818 26.013C40.0049 25.6385 39.5578 25.4783 39.1833 25.6552L39.824 27.0115ZM33.8237 43.3501L30.7052 40.2316L29.6445 41.2923L32.763 44.4107L33.8237 43.3501ZM44.8549 37.5685C42.2963 40.3273 38.1599 42.5939 35.8577 43.7226L36.518 45.0694C38.8357 43.9332 43.193 41.5662 45.9547 38.5885L44.8549 37.5685ZM30.3327 38.1976C31.4614 35.8954 33.728 31.759 36.4868 29.2003L35.4667 28.1005C32.4891 30.8622 30.1221 35.2196 28.9859 37.5373L30.3327 38.1976ZM49.1377 26.5992C48.7317 29.7029 47.6487 34.5563 44.8549 37.5685L45.9547 38.5885C49.0916 35.2064 50.2144 29.9331 50.625 26.7937L49.1377 26.5992ZM50.625 26.7937C50.8851 24.8047 49.2506 23.1701 47.2616 23.4303L47.4561 24.9176C48.4682 24.7852 49.27 25.5871 49.1377 26.5992L50.625 26.7937ZM30.7052 40.2316C30.1502 39.6766 30.005 38.8661 30.3327 38.1976L28.9859 37.5373C28.3582 38.8175 28.6649 40.3126 29.6445 41.2923L30.7052 40.2316ZM32.763 44.4107C33.7426 45.3904 35.2378 45.697 36.518 45.0694L35.8577 43.7226C35.1892 44.0503 34.3787 43.9051 33.8237 43.3501L32.763 44.4107ZM33.3498 38.3978L38.2749 43.3229L39.3356 42.2622L34.4105 37.3371L33.3498 38.3978ZM28.3754 44.6192L24.6042 48.3905L25.6648 49.4511L29.4361 45.6799L28.3754 44.6192ZM25.547 41.7908L23.6614 43.6764L24.722 44.7371L26.6076 42.8514L25.547 41.7908ZM31.2038 47.4476L29.3182 49.3333L30.3789 50.3939L32.2645 48.5083L31.2038 47.4476ZM38.7463 30.4771C37.412 31.8114 37.412 33.9747 38.7463 35.309L39.807 34.2483C39.0585 33.4998 39.0585 32.2862 39.807 31.5377L38.7463 30.4771ZM38.7463 35.309C40.0806 36.6433 42.2439 36.6433 43.5782 35.309L42.5175 34.2483C41.769 34.9968 40.5555 34.9968 39.807 34.2483L38.7463 35.309ZM43.5782 35.309C44.9125 33.9747 44.9125 31.8114 43.5782 30.4771L42.5175 31.5377C43.266 32.2862 43.266 33.4998 42.5175 34.2483L43.5782 35.309ZM43.5782 30.4771C42.2439 29.1428 40.0806 29.1428 38.7463 30.4771L39.807 31.5377C40.5555 30.7892 41.769 30.7892 42.5175 31.5377L43.5782 30.4771ZM41.1033 45.0906L36.8607 49.3333L37.9213 50.3939L42.164 46.1513L41.1033 45.0906ZM40.8912 41.9558L41.2683 44.5956L42.7532 44.3835L42.3761 41.7436L40.8912 41.9558ZM36.8607 49.3333C36.5208 49.6732 35.9387 49.4791 35.8707 49.0033L34.3858 49.2154C34.6286 50.9149 36.7074 51.6079 37.9213 50.3939L36.8607 49.3333ZM42.164 46.1513C42.6277 45.6876 42.846 45.0327 42.7532 44.3835L41.2683 44.5956C41.2943 44.7774 41.2332 44.9608 41.1033 45.0906L42.164 46.1513ZM27.904 31.8913L23.6613 36.134L24.722 37.1946L28.9646 32.952L27.904 31.8913ZM32.3116 31.6792L29.6717 31.3021L29.4596 32.787L32.0995 33.1641L32.3116 31.6792ZM23.6613 36.134C22.4474 37.3479 23.1403 39.4267 24.8398 39.6695L25.052 38.1846C24.5761 38.1166 24.3821 37.5345 24.722 37.1946L23.6613 36.134ZM28.9646 32.952C29.0945 32.8222 29.2778 32.761 29.4596 32.787L29.6717 31.3021C29.0226 31.2093 28.3677 31.4276 27.904 31.8913L28.9646 32.952ZM43.8508 25.6003C45.171 25.266 46.4212 25.053 47.4561 24.9176L47.2616 23.4303C46.182 23.5715 44.8721 23.7944 43.4826 24.1462L43.8508 25.6003ZM36.4868 29.2003C37.4426 28.3138 38.5908 27.594 39.824 27.0115L39.1833 25.6552C37.8487 26.2856 36.5619 27.0848 35.4667 28.1005L36.4868 29.2003Z" fill="black"/>
</svg>
