<svg width="108" height="18" viewBox="0 0 108 18" fill="none" xmlns="http://www.w3.org/2000/svg">
<path d="M7.15288 18C10.7657 18 13.2389 16.0338 13.2389 13.1548C13.2389 10.814 11.7598 9.33941 8.80168 8.47334L5.57682 7.53706C3.80679 7.04552 2.86115 6.0156 2.86115 4.6814C2.86115 3.04292 4.29173 1.94279 6.47396 1.94279C8.68045 1.94279 10.3293 3.06632 11.0809 5.12613L13.0934 4.21326C12.269 1.89597 9.77157 0 6.44972 0C2.98239 0 0.557682 1.9896 0.557682 4.82184C0.557682 6.97529 2.0125 8.73082 4.89791 9.55006L8.26825 10.5332C10.0625 11.0481 10.9354 11.844 10.9354 13.3186C10.9354 14.9337 9.4321 16.0572 7.15288 16.0572C4.75243 16.0572 2.8854 14.7932 2.03676 12.4057L0 13.2718C0.872894 15.9168 3.61281 18 7.15288 18Z" fill="#043084"/>
<path d="M21.3329 17.8596C21.6966 17.8596 22.2058 17.8362 22.618 17.7425V16.104C22.3512 16.1508 21.9875 16.1743 21.7208 16.1743C19.5143 16.1743 19.3689 14.723 19.3689 13.9272V7.23277H22.4725V5.3134H19.3689V1.28738H17.2836V3.48765C17.2836 4.58778 16.5562 5.3134 15.4408 5.3134H14.7862V7.23277H17.2836V13.9272C17.2836 16.4317 18.7384 17.8596 21.3329 17.8596Z" fill="#043084"/>
<path d="M41.0597 6.85826C41.7387 5.71131 42.9753 5.17296 44.5271 5.17296H45.5697V7.09233H44.2119C42.3691 7.09233 41.1325 8.26268 41.1325 10.3225V17.7191H39.0472V5.3134H41.0597V6.85826Z" fill="#043084"/>
<path d="M61.5565 5.03251C59.7622 5.03251 58.2589 5.82835 57.4345 7.23277C56.6586 5.87516 55.1795 5.03251 53.4095 5.03251C51.8819 5.03251 50.5725 5.6645 49.8451 6.74122V5.3134H47.8084V17.7191H49.8936V10.2055C49.8936 8.23928 51.106 6.97529 52.9245 6.97529C54.7673 6.97529 55.9554 8.21586 55.9554 10.2055V17.7191H58.0406V10.2055C58.0406 8.23928 59.253 6.97529 61.0715 6.97529C62.9143 6.97529 64.1024 8.21586 64.1024 10.2055V17.7191H66.1877V9.55006C66.1877 6.92848 64.2236 5.03251 61.5565 5.03251Z" fill="#043084"/>
<path d="M79.7147 17.7191H69.3854V0.280886H71.6889V15.7763H79.7147V17.7191Z" fill="#043084"/>
<path fill-rule="evenodd" clip-rule="evenodd" d="M87.1364 5.03251C84.7601 5.03251 82.6749 6.3433 81.9475 8.02861L83.8145 8.96489C84.3722 7.74772 85.5845 6.95188 87.1364 6.95188C88.8336 6.95188 90.046 7.88816 90.046 9.31599V9.6671L85.5845 10.6268C82.9901 11.1886 81.4625 12.4525 81.4625 14.2783C81.4625 16.4551 83.3053 18 86.0452 18C87.694 18 89.2216 17.2276 90.0945 15.987V17.7191H92.1312V9.31599C92.1312 6.78803 90.0702 5.03251 87.1364 5.03251ZM86.1665 16.1977C84.6389 16.1977 83.669 15.4486 83.669 14.2783C83.669 13.2718 84.6147 12.4993 86.0695 12.1951L90.046 11.3056V12.3823C90.046 14.5592 88.4214 16.1977 86.1665 16.1977Z" fill="#043084"/>
<path fill-rule="evenodd" clip-rule="evenodd" d="M96.9433 7.13914C97.8405 5.82835 99.562 5.03251 101.526 5.03251C105.139 5.03251 108 7.77113 108 11.5163C108 15.2614 105.139 18 101.502 18C99.5863 18 97.8405 17.251 96.8949 15.9168V17.7191H94.8581V0.280886H96.9433V7.13914ZM96.9433 11.5163C96.9433 14.1378 98.8346 16.0572 101.381 16.0572C103.902 16.0572 105.794 14.1378 105.794 11.5163C105.794 8.91808 103.902 6.97529 101.381 6.97529C98.8346 6.97529 96.9433 8.91808 96.9433 11.5163Z" fill="#043084"/>
<path d="M30.8301 4.55266H30.8373L30.6159 4.80317C28.7533 6.91004 27.1795 9.3437 25.9504 12.0175C25.9215 12.0776 25.905 12.1471 25.905 12.2211C25.905 12.4497 26.0625 12.635 26.2567 12.635H29.2893V17.5504C26.2651 16.8761 24.0107 14.2601 24.0107 11.1359C24.0107 7.50007 27.0638 4.55266 30.8301 4.55266Z" fill="#043084"/>
<path d="M35.3636 11.0242C34.1767 13.4952 32.6924 15.7496 30.9577 17.718C34.6651 17.6523 37.6496 14.7306 37.6496 11.1359C37.6496 8.04322 35.4405 5.44863 32.4625 4.74245V9.68589H35.4035C35.5286 9.68589 35.6443 9.76404 35.7074 9.89115C35.7704 10.0183 35.7713 10.1752 35.7098 10.3033L35.3636 11.0242Z" fill="#043084"/>
</svg>
